<svg xmlns="http://www.w3.org/2000/svg" version="1.1" xmlns:xlink="http://www.w3.org/1999/xlink" xmlns:svgjs="http://svgjs.dev/svgjs" width="1000" height="1000" viewBox="0 0 1000 1000"><rect width="1000" height="1000" fill="#ffffff"></rect><g transform="matrix(0.7,0,0,0.7,150,218.95000000000005)"><svg viewBox="0 0 448 360" data-background-color="#ffffff" preserveAspectRatio="xMidYMid meet" height="803" width="1000" xmlns="http://www.w3.org/2000/svg" xmlns:xlink="http://www.w3.org/1999/xlink"><g id="tight-bounds" transform="matrix(1,0,0,1,0,0)"><svg viewBox="0 0 448 360" height="360" width="448"><g><svg></svg></g><g><svg viewBox="0 0 448 360" height="360" width="448"><g><path xmlns="http://www.w3.org/2000/svg" d="M193.855 44.683c1.378 0 2.494 1.116 2.495 2.494 0 1.378-1.116 2.494-2.495 2.495h-23.846l-17.167 17.167c-0.973 0.973-2.551 0.973-3.53 0-0.973-0.973-0.973-2.551 0-3.529l13.644-13.645h-40.378c-11.518 0-19.151 2.688-23.815 8.113-4.739 5.519-6.66 14.056-6.66 25.63 0 0.069 0 0.137-0.006 0.206l0.212 36.692 14.692-14.692c0.973-0.973 2.551-0.973 3.53 0 0.973 0.973 0.973 2.551 0 3.53l-18.178 18.178c0.206 35.832 0.193 71.358-0.013 107.19 25.486 25.2 50.617 50.312 75.811 75.791h25.38c1.378 0 2.494 1.116 2.495 2.495 0 1.378-1.116 2.494-2.495 2.494h-20.448l25.942 26.241 0.006-0.006c8.188 8.188 15.577 12.859 22.824 13.413 7.146 0.543 14.442-2.956 22.586-11.093l28.555-28.555h-20.722c-1.378 0-2.494-1.116-2.495-2.494 0-1.378 1.116-2.494 2.495-2.495h25.711l16.625-16.625c0.973-0.973 2.551-0.973 3.529 0 0.973 0.973 0.973 2.551 0 3.53l-13.101 13.102h40.377c11.518 0 19.151-2.688 23.815-8.113 4.739-5.519 6.66-14.056 6.66-25.63h0.013l-0.212-36.898-16.014 16.014c-0.973 0.973-2.551 0.973-3.53 0-0.973-0.973-0.973-2.551 0-3.53l19.5-19.5c-0.206-35.832-0.193-71.358 0.013-107.19-25.486-25.2-50.617-50.312-75.811-75.791h-26.147c-1.378 0-2.494-1.116-2.495-2.495 0-1.378 1.116-2.494 2.495-2.494h21.215l-25.824-26.123c-0.044-0.037-0.081-0.075-0.124-0.112-8.188-8.188-15.577-12.859-22.824-13.413-7.146-0.543-14.442 2.956-22.586 11.093l-28.555 28.555h18.858zM122.578 44.683h45.367l32.078-32.078c9.248-9.248 17.81-13.195 26.484-12.534 8.568 0.649 16.956 5.824 25.985 14.854 0.05 0.05 0.094 0.094 0.137 0.143l29.278 29.615h43.508c13.071 0 21.919 3.268 27.594 9.871 5.6 6.517 7.864 16.101 7.864 28.867 0 0.081-0.006 0.156-0.012 0.23l-0.225 39.742 28.43 28.112 0.006-0.006c9.03 9.03 14.206 17.411 14.854 25.985 0.661 8.674-3.293 17.236-12.534 26.484l-30.768 30.768 0.237 41.843h0.012c0 12.765-2.27 22.35-7.864 28.867-5.675 6.604-14.524 9.872-27.594 9.871h-45.366l-32.078 32.078c-9.248 9.248-17.81 13.195-26.484 12.534-8.568-0.649-16.956-5.824-25.985-14.854l0.006-0.006-29.421-29.758h-43.509c-13.071 0-21.919-3.268-27.594-9.872-5.6-6.517-7.864-16.101-7.863-28.866h0.012l0.231-39.972-28.293-27.969c-0.05-0.044-0.1-0.087-0.143-0.137-9.03-9.03-14.206-17.411-14.854-25.985-0.661-8.674 3.293-17.236 12.534-26.484l30.768-30.768-0.237-41.607c-0.006-0.075-0.012-0.156-0.012-0.23 0-12.765 2.27-22.35 7.864-28.867 5.675-6.604 14.524-9.872 27.594-9.871zM87.682 179.997l-0.274-47.724-27.276 27.276c-8.138 8.138-11.636 15.44-11.094 22.587 0.549 7.246 5.226 14.642 13.413 22.823 0.037 0.037 0.081 0.081 0.113 0.125l24.837 24.551 0.281-49.644zM92.303 241.483l-0.2 35.09h0.013c0 11.58 1.921 20.117 6.66 25.63 4.664 5.432 12.297 8.113 23.815 8.113h38.576l-33.55-33.936-35.308-34.903zM325.415 49.672h-38.575l33.549 33.936 35.308 34.902 0.2-34.884c-0.006-0.069-0.006-0.137-0.007-0.205 0-11.58-1.921-20.117-6.66-25.63-4.664-5.432-12.297-8.113-23.815-8.113zM360.599 130.352l-0.281 49.645 0.274 47.724 27.276-27.276c8.138-8.138 11.636-15.44 11.094-22.587-0.549-7.252-5.226-14.642-13.413-22.824l0.006-0.006-24.956-24.669z" fill="#000000" fill-rule="nonzero" stroke="none" stroke-width="1" stroke-linecap="butt" stroke-linejoin="miter" stroke-miterlimit="10" stroke-dasharray="" stroke-dashoffset="0" font-family="none" font-weight="none" font-size="none" text-anchor="none" style="mix-blend-mode: normal" data-fill-palette-color="tertiary"></path></g><g transform="matrix(1,0,0,1,112,153.85124688356674)"><svg viewBox="0 0 224 52.29750623286652" height="52.29750623286652" width="224"><g><svg viewBox="0 0 225.11999999999998 52.558993764030845" height="52.29750623286652" width="224"><g><rect width="225.11999999999998" height="1.6098125609460152" x="0" y="28.88411245244216" fill="#000000" opacity="1" stroke-width="0" stroke="transparent" fill-opacity="1" class="rect-o-0" data-fill-palette-color="primary" rx="1%" id="o-0" data-palette-color="#ee3e38"></rect></g><g transform="matrix(1,0,0,1,0.5599999999999881,34.70809402110026)"><svg viewBox="0 0 224 17.85089974293059" height="17.85089974293059" width="224"><g id="textblocktransform"><svg viewBox="0 0 224 17.85089974293059" height="17.85089974293059" width="224" id="textblock"><g><svg viewBox="0 0 224 17.85089974293059" height="17.85089974293059" width="224"><g transform="matrix(1,0,0,1,0,0)"><svg width="224" viewBox="0.699999988079071 -39.599998474121094 504.0799865722656 40.29999923706055" height="17.85089974293059" data-palette-color="#ee3e38"><g class="wordmark-text-0" data-fill-palette-color="primary" id="text-0"><path d="M38.3-38.9L38.3-26.8 29.7-26.8 29.7-30.7 26.5-30.7 26.5-8.2 30-8.2 30 0 9 0 9-8.2 12.5-8.2 12.5-30.7 9.3-30.7 9.3-26.8 0.7-26.8 0.7-38.9 38.3-38.9ZM59 0L40 0 40-8.2 42.5-8.2 42.5-30.7 40-30.7 40-38.9 59-38.9 59-30.7 56.5-30.7 56.5-8.2 59-8.2 59 0ZM116.15-38.9L116.15-30.7 113.65-30.7 113.65-8.2 116.15-8.2 116.15 0 97.25 0 97.25-8.2 99.65-8.2 99.65-25.7 91.15 0 83.75 0 75-25.45 75-8.2 77.4-8.2 77.4 0 61 0 61-8.2 63.5-8.2 63.5-30.7 61-30.7 61-38.9 83.9-38.9 89.09-23.3 94.09-38.9 116.15-38.9ZM151.89 0L118.14 0 118.14-8.2 120.64-8.2 120.64-30.7 118.14-30.7 118.14-38.9 151.89-38.9 151.89-23.8 140.69-23.8 140.69-30.7 134.64-30.7 134.64-22.8 139.04-22.8 139.04-17.1 134.64-17.1 134.64-8.2 140.69-8.2 140.69-16.1 151.89-16.1 151.89 0Z" fill="#000000" data-fill-palette-color="primary"></path><path d="M205.19-38.9L205.19-26.8 196.59-26.8 196.59-30.7 193.39-30.7 193.39-8.2 196.89-8.2 196.89 0 175.89 0 175.89-8.2 179.39-8.2 179.39-30.7 176.19-30.7 176.19-26.8 167.59-26.8 167.59-38.9 205.19-38.9ZM225.69 0.7Q216.54 0.7 211.56-4.1 206.59-8.9 206.59-19.45L206.59-19.45Q206.59-30 211.56-34.8 216.54-39.6 225.69-39.6L225.69-39.6Q234.84-39.6 239.81-34.8 244.79-30 244.79-19.45L244.79-19.45Q244.79-8.9 239.81-4.1 234.84 0.7 225.69 0.7L225.69 0.7ZM225.69-8.2Q227.39-8.2 228.23-9.1 229.09-10 229.09-11.9L229.09-11.9 229.09-27Q229.09-28.9 228.23-29.8 227.39-30.7 225.69-30.7L225.69-30.7Q223.98-30.7 223.14-29.8 222.29-28.9 222.29-27L222.29-27 222.29-11.9Q222.29-9.95 223.14-9.08 223.98-8.2 225.69-8.2L225.69-8.2Z" fill="#000000" data-fill-palette-color="primary"></path><path d="M315.94-38.9L315.94-30.7 313.44-30.7 313.44-8.2 315.94-8.2 315.94 0 297.04 0 297.04-8.2 299.44-8.2 299.44-25.7 290.94 0 283.54 0 274.79-25.45 274.79-8.2 277.19-8.2 277.19 0 260.79 0 260.79-8.2 263.29-8.2 263.29-30.7 260.79-30.7 260.79-38.9 283.69-38.9 288.89-23.3 293.89-38.9 315.94-38.9ZM346.19-38.9L354.64-8.2 356.64-8.2 356.64 0 337.04 0 337.04-8.2 340.04-8.2 339.24-12.2 332.44-12.2 331.64-8.2 334.64-8.2 334.64 0 317.54 0 317.54-8.2 319.54-8.2 327.99-38.9 346.19-38.9ZM335.59-27.45L333.54-17.5 338.14-17.5 336.09-27.45 335.59-27.45ZM373.73 0.7Q368.93 0.7 364.66-0.13 360.38-0.95 358.08-2L358.08-2 358.08-11.9 369.08-11.9Q369.08-10.35 369.78-9.65 370.48-8.95 372.33-8.95L372.33-8.95Q373.88-8.95 374.56-9.43 375.23-9.9 375.23-10.85L375.23-10.85Q375.23-11.65 374.58-12.23 373.93-12.8 372.33-13.4L372.33-13.4 368.03-14.9Q362.48-17 360.06-19.85 357.63-22.7 357.63-27.55L357.63-27.55Q357.63-33.45 361.51-36.52 365.38-39.6 374.43-39.6L374.43-39.6Q378.78-39.6 382.61-38.73 386.43-37.85 388.78-36.4L388.78-36.4 388.78-27.45 378.78-27.45Q378.78-29.95 375.68-29.95L375.68-29.95Q374.18-29.95 373.56-29.58 372.93-29.2 372.93-28.25L372.93-28.25Q372.93-27.4 373.66-26.9 374.38-26.4 376.03-25.85L376.03-25.85 380.38-24.35Q385.68-22.55 388.11-19.68 390.53-16.8 390.53-12.15L390.53-12.15Q390.53-5.8 386.26-2.55 381.98 0.7 373.73 0.7L373.73 0.7ZM429.23-38.9L429.23-26.8 420.63-26.8 420.63-30.7 417.43-30.7 417.43-8.2 420.93-8.2 420.93 0 399.93 0 399.93-8.2 403.43-8.2 403.43-30.7 400.23-30.7 400.23-26.8 391.63-26.8 391.63-38.9 429.23-38.9ZM464.68 0L430.93 0 430.93-8.2 433.43-8.2 433.43-30.7 430.93-30.7 430.93-38.9 464.68-38.9 464.68-23.8 453.48-23.8 453.48-30.7 447.43-30.7 447.43-22.8 451.83-22.8 451.83-17.1 447.43-17.1 447.43-8.2 453.48-8.2 453.48-16.1 464.68-16.1 464.68 0ZM466.58 0L466.58-8.2 469.08-8.2 469.08-30.7 466.58-30.7 466.58-38.9 489.53-38.9Q495.98-38.9 499.38-36.25 502.78-33.6 502.78-27.65L502.78-27.65Q502.78-24.3 501.43-21.85 500.08-19.4 497.58-18.45L497.58-18.45 497.63-17.95Q502.43-17.2 502.43-12.05L502.43-12.05 502.43-8.2 504.78-8.2 504.78 0 488.93 0 488.93-11.75Q488.93-13.7 488.35-14.7 487.78-15.7 486.55-16.05 485.33-16.4 483.08-16.4L483.08-16.4 483.08-8.2 486.38-8.2 486.38 0 466.58 0ZM483.08-22.5L485.78-22.5Q487.23-22.5 487.95-23.28 488.68-24.05 488.68-25.7L488.68-25.7 488.68-27.5Q488.68-29.15 487.95-29.93 487.23-30.7 485.78-30.7L485.78-30.7 483.08-30.7 483.08-22.5Z" fill="#000000" data-fill-palette-color="primary"></path></g></svg></g></svg></g></svg></g></svg></g><g transform="matrix(1,0,0,1,92.88422993398345,0)"><svg viewBox="0 0 39.35154013203309 24.669943444730077" height="24.669943444730077" width="39.35154013203309"><g><svg xmlns="http://www.w3.org/2000/svg" xmlns:xlink="http://www.w3.org/1999/xlink" version="1.1" x="0" y="0" viewBox="8.863937377929688 28.5 81.3511734008789 51.00000762939453" enable-background="new 0 0 100 100" xml:space="preserve" height="24.669943444730077" width="39.35154013203309" class="icon-icon-0" data-fill-palette-color="accent" id="icon-0"><g fill="#ee3e38" data-fill-palette-color="accent"><rect x="68.2" y="35.4" transform="matrix(0.9697 0.2441 -0.2441 0.9697 11.1255 -15.7675)" width="2" height="3.1" fill="#000000" data-fill-palette-color="accent"></rect><rect x="79.9" y="56.6" transform="matrix(-0.9697 -0.2442 0.2442 -0.9697 146.4785 133.4308)" width="3.1" height="2" fill="#000000" data-fill-palette-color="accent"></rect><rect x="59.9" y="68.4" transform="matrix(-0.9697 -0.2442 0.2442 -0.9697 102.8081 152.6969)" width="2" height="3.1" fill="#000000" data-fill-palette-color="accent"></rect><rect x="47" y="48.3" transform="matrix(0.9698 0.2441 -0.2441 0.9698 13.5101 -10.3536)" width="3.1" height="2" fill="#000000" data-fill-palette-color="accent"></rect><rect x="51.3" y="40.6" transform="matrix(0.7175 0.6966 -0.6966 0.7175 43.926 -25.0297)" width="3.1" height="2" fill="#000000" data-fill-palette-color="accent"></rect><rect x="75.9" y="39.7" transform="matrix(0.7178 0.6963 -0.6963 0.7178 50.4422 -41.8675)" width="2" height="3.1" fill="#000000" data-fill-palette-color="accent"></rect><rect x="75.7" y="64.3" transform="matrix(-0.7175 -0.6966 0.6966 -0.7175 87.1133 165.9953)" width="3.1" height="2" fill="#000000" data-fill-palette-color="accent"></rect><rect x="52.2" y="64.1" transform="matrix(-0.7177 -0.6963 0.6963 -0.7177 45.6007 149.8542)" width="2" height="3.1" fill="#000000" data-fill-palette-color="accent"></rect><rect x="47.7" y="56.7" transform="matrix(-0.2794 -0.9602 0.9602 -0.2794 6.3798 121.256)" width="2" height="3.1" fill="#000000" data-fill-palette-color="accent"></rect><rect x="58.7" y="36.2" transform="matrix(0.2792 0.9602 -0.9602 0.2792 79.1288 -31.0899)" width="3.1" height="2" fill="#000000" data-fill-palette-color="accent"></rect><path d="M64.1 53.4c0.1 0.4 0.5 0.7 1 0.7 0.1 0 0.2 0 0.3 0l17.7-4.8c0.5-0.1 0.8-0.7 0.7-1.2-0.1-0.5-0.7-0.8-1.2-0.7l-17.7 4.8C64.3 52.3 64 52.8 64.1 53.4z" fill="#000000" data-fill-palette-color="accent"></path><rect x="68.2" y="68.8" transform="matrix(-0.279 -0.9603 0.9603 -0.279 22.1946 156.2911)" width="3.1" height="2" fill="#000000" data-fill-palette-color="accent"></rect><path d="M71.4 29.2c-1.2-0.3-2.3-0.5-3.5-0.6-0.9-0.1-1.7-0.1-2.6-0.1-5.5 0-10.7 1.8-14.9 4.9l0-0.2c-0.2-1.2-1.4-2.1-2.6-1.9l-2.6 0.5-0.4-2.2c-0.1-0.5-0.6-0.9-1.2-0.8-0.5 0.1-0.9 0.6-0.8 1.2l0.4 2.2-8 1.4-0.5-2.9c-0.1-0.5-0.6-0.9-1.2-0.8-0.5 0.1-0.9 0.6-0.8 1.2l0.5 2.9-8.4 1.4-0.5-2.7c-0.1-0.5-0.6-0.9-1.2-0.8-0.5 0.1-0.9 0.6-0.8 1.2l0.5 2.7-7.4 1.3-0.4-2.2c-0.1-0.5-0.6-0.9-1.2-0.8-0.5 0.1-0.9 0.6-0.8 1.2l0.4 2.2-2.6 0.5c-0.6 0.1-1.1 0.4-1.5 0.9-0.4 0.5-0.5 1.1-0.4 1.7l6.3 37c0.2 1.1 1.1 1.9 2.3 1.9 0.1 0 0.3 0 0.4 0l31.6-5.4 0.4-0.2-1.7-1.6-30.7 5.2-0.1 0c-0.1 0-0.3-0.1-0.3-0.2l-4.8-28 29.5-5c0.4-0.8 0.7-1.5 1.2-2.2l-31 5.3-1.2-7.1c0-0.1 0-0.2 0.1-0.2 0 0 0.1-0.1 0.2-0.1l2.6-0.5 0.4 2.2c0.1 0.5 0.5 0.8 1 0.8 0.1 0 0.1 0 0.2 0 0.5-0.1 0.9-0.6 0.8-1.2l-0.4-2.2 7.4-1.3 0.3 1.8c0.1 0.5 0.5 0.8 1 0.8 0.1 0 0.1 0 0.2 0 0.5-0.1 0.9-0.6 0.8-1.2L25 37.1l8.4-1.4 0.3 1.6c0.1 0.5 0.5 0.8 1 0.8 0.1 0 0.1 0 0.2 0 0.5-0.1 0.9-0.6 0.8-1.2l-0.3-1.6 8-1.4 0.4 2.2c0.1 0.5 0.5 0.8 1 0.8 0.1 0 0.1 0 0.2 0 0.5-0.1 0.9-0.6 0.8-1.2l-0.4-2.2 2.7-0.5c0.1 0 0.3 0.1 0.3 0.2l0.2 1.4c-1.5 1.4-2.9 2.9-4 4.6-1.6 2.4-2.8 5-3.6 7.9-3.4 13.4 4.8 27 18.1 30.3 2 0.5 4.1 0.8 6.1 0.8 11.5 0 21.4-7.8 24.2-18.9C92.9 46.1 84.8 32.5 71.4 29.2zM87.6 59C85 69.3 75.8 76.4 65.3 76.4c-1.9 0-3.8-0.2-5.6-0.7C47.4 72.6 39.9 60.1 43 47.8c2.6-10.2 11.7-17.4 22.3-17.4 1.9 0 3.8 0.2 5.6 0.7C83.2 34.2 90.7 46.7 87.6 59z" fill="#000000" data-fill-palette-color="accent"></path><path d="M25.9 51.6c-1.9 0.3-3.3 1.3-4 3-0.7 1.6-0.8 4-0.3 7 0.5 2.9 1.4 5.1 2.6 6.5s2.8 1.9 4.7 1.6c2-0.3 3.3-1.3 4-3 0.7-1.7 0.8-4 0.3-7-0.5-2.9-1.4-5.1-2.6-6.4C29.4 51.8 27.8 51.3 25.9 51.6zM31.3 65.6c-0.4 1.3-1.3 2-2.6 2.3-1.3 0.2-2.4-0.2-3.2-1.3-0.8-1.1-1.4-2.9-1.8-5.4-0.4-2.5-0.4-4.4 0-5.7 0.4-1.3 1.3-2 2.6-2.2 1.3-0.2 2.4 0.2 3.2 1.3 0.8 1.1 1.4 2.9 1.8 5.4C31.7 62.5 31.7 64.4 31.3 65.6z" fill="#000000" data-fill-palette-color="accent"></path><path d="M39.6 51.1c0.1-0.6 0.2-1.2 0.3-1.8-0.1 0-0.1 0-0.2 0-1.7 0.3-2.9 1-3.7 2.3-0.8 1.2-1.1 2.7-0.8 4.6 0.3 1.7 1 2.9 2 3.6 0.9 0.6 2 0.9 3.2 0.8-0.2-0.6-0.4-1.1-0.5-1.7-0.5-0.1-1-0.3-1.4-0.6-0.7-0.6-1.1-1.4-1.3-2.6-0.2-1.3-0.1-2.4 0.4-3.2C38 51.8 38.7 51.3 39.6 51.1z" fill="#000000" data-fill-palette-color="accent"></path><path d="M40.8 67.6c0.9-0.2 1.7-0.4 2.5-0.7-0.2-0.4-0.5-0.9-0.8-1.5-0.6 0.3-1.2 0.5-2 0.6-0.8 0.1-1.6 0.2-2.2 0.1l0.3 1.7C39.1 67.8 39.9 67.8 40.8 67.6z" fill="#000000" data-fill-palette-color="accent"></path></g></svg></g></svg></g><g></g></svg></g></svg></g></svg></g><defs></defs></svg><rect width="448" height="360" fill="none" stroke="none" visibility="hidden"></rect></g></svg></g></svg>